<svg xmlns="http://www.w3.org/2000/svg" width="7.865" height="166.601" viewBox="0 0 7.865 166.601">
  <g id="Group_15" data-name="Group 15" transform="translate(-1991.068 -32.45)">
    <g id="Group_8" data-name="Group 8" transform="translate(-104 0.5)">
      <line id="Line_1" data-name="Line 1" x2="7" y2="5.5" transform="translate(2095.5 32.5)" fill="none" stroke="#fff" stroke-width="1.4"/>
      <line id="Line_2" data-name="Line 2" x1="7" y2="5.5" transform="translate(2095.5 32.5)" fill="none" stroke="#fff" stroke-width="1.4"/>
    </g>
    <g id="Group_9" data-name="Group 9" transform="translate(-104 32.5)">
      <line id="Line_1-2" data-name="Line 1" x2="7" y2="5.5" transform="translate(2095.5 32.5)" fill="none" stroke="#fff" stroke-width="1.4"/>
      <line id="Line_2-2" data-name="Line 2" x1="7" y2="5.5" transform="translate(2095.5 32.5)" fill="none" stroke="#fff" stroke-width="1.4"/>
    </g>
    <g id="Group_10" data-name="Group 10" transform="translate(-104 32.5)">
      <line id="Line_1-3" data-name="Line 1" x2="7" y2="5.5" transform="translate(2095.5 32.5)" fill="none" stroke="#fff" stroke-width="1.4"/>
      <line id="Line_2-3" data-name="Line 2" x1="7" y2="5.5" transform="translate(2095.5 32.5)" fill="none" stroke="#fff" stroke-width="1.4"/>
    </g>
    <g id="Group_11" data-name="Group 11" transform="translate(-104 64.5)">
      <line id="Line_1-4" data-name="Line 1" x2="7" y2="5.5" transform="translate(2095.5 32.5)" fill="none" stroke="#fff" stroke-width="1.4"/>
      <line id="Line_2-4" data-name="Line 2" x1="7" y2="5.5" transform="translate(2095.5 32.5)" fill="none" stroke="#fff" stroke-width="1.4"/>
    </g>
    <g id="Group_12" data-name="Group 12" transform="translate(-104 96.5)">
      <line id="Line_1-5" data-name="Line 1" x2="7" y2="5.5" transform="translate(2095.5 32.5)" fill="none" stroke="#fff" stroke-width="1.4"/>
      <line id="Line_2-5" data-name="Line 2" x1="7" y2="5.5" transform="translate(2095.5 32.5)" fill="none" stroke="#fff" stroke-width="1.4"/>
    </g>
    <g id="Group_13" data-name="Group 13" transform="translate(-104 128.5)">
      <line id="Line_1-6" data-name="Line 1" x2="7" y2="5.5" transform="translate(2095.5 32.5)" fill="none" stroke="#fff" stroke-width="1.4"/>
      <line id="Line_2-6" data-name="Line 2" x1="7" y2="5.5" transform="translate(2095.5 32.5)" fill="none" stroke="#fff" stroke-width="1.4"/>
    </g>
    <g id="Group_14" data-name="Group 14" transform="translate(-104 160.5)">
      <line id="Line_1-7" data-name="Line 1" x2="7" y2="5.5" transform="translate(2095.5 32.5)" fill="none" stroke="#fff" stroke-width="1.4"/>
      <line id="Line_2-7" data-name="Line 2" x1="7" y2="5.5" transform="translate(2095.5 32.5)" fill="none" stroke="#fff" stroke-width="1.4"/>
    </g>
  </g>
</svg>
