<svg xmlns="http://www.w3.org/2000/svg" width="67.615" height="51.661" viewBox="0 0 67.615 51.661">
  <g id="Group_104" data-name="Group 104" transform="translate(-777.477 -73.476)">
    <path id="Path_38" data-name="Path 38" d="M2254.828,954.319l-1.117-1.423c-.521-.664-11.2-14.062-25.824-17.977a20.7,20.7,0,0,0-5.888-1.34v-.062c-.112,0-.223-.006-.335-.006-.216,0-.429.009-.643.015s-.427-.015-.643-.015c-.112,0-.223,0-.335.006v.062a20.7,20.7,0,0,0-5.888,1.34c-14.62,3.915-25.3,17.313-25.824,17.977l-1.117,1.423.122.156-.122-.057A79.783,79.783,0,0,0,2205.536,976l1.832,1.438L2209.2,976l1.316-.925a76.669,76.669,0,0,0,8.994,8.661l1.832,1.438,1.832-1.438a76.331,76.331,0,0,0,8.746-8.384l.922.648,1.832,1.438,1.832-1.438a79.784,79.784,0,0,0,18.323-21.581l-.122.057Zm-15.533-8.647a62.039,62.039,0,0,1,9.572,8.647,62.047,62.047,0,0,1-9.572,8.647,20.731,20.731,0,0,0,0-17.295Zm-2.795,8.647a16.085,16.085,0,0,1-.535,4.117l-9.507-19.046A16.146,16.146,0,0,1,2236.5,954.319Zm-15.48-7.675,3.382,7.38h-2.651l-3.476,7.331h9.758l2.153,4.54h-18.331l2.153-4.54,3.63-7.331Zm-5.438-7.254-9.507,19.046a16.118,16.118,0,0,1,9.507-19.046Zm-12.837,6.282a20.712,20.712,0,0,0-.064,17.145l-.335-.145a62.327,62.327,0,0,1-9.173-8.353A62.051,62.051,0,0,1,2202.746,945.671Z" transform="translate(-1409.737 -860.036)" fill="#fff"/>
  </g>
</svg>
