<svg id="Group_23" data-name="Group 23" xmlns="http://www.w3.org/2000/svg" width="20.28" height="20.28" viewBox="0 0 20.28 20.28">
  <path id="Path_34" data-name="Path 34" d="M-521.772,19.844c2.708,0,3.028.01,4.1.059a5.613,5.613,0,0,1,1.883.349,3.142,3.142,0,0,1,1.166.758,3.142,3.142,0,0,1,.759,1.166,5.611,5.611,0,0,1,.349,1.883c.049,1.069.059,1.39.059,4.1s-.01,3.028-.059,4.1a5.611,5.611,0,0,1-.349,1.883,3.142,3.142,0,0,1-.759,1.166,3.143,3.143,0,0,1-1.166.758,5.61,5.61,0,0,1-1.883.349c-1.069.049-1.39.059-4.1.059s-3.028-.01-4.1-.059a5.609,5.609,0,0,1-1.883-.349,3.143,3.143,0,0,1-1.166-.758,3.144,3.144,0,0,1-.758-1.166,5.609,5.609,0,0,1-.349-1.883c-.049-1.069-.059-1.39-.059-4.1s.01-3.028.059-4.1a5.609,5.609,0,0,1,.349-1.883,3.143,3.143,0,0,1,.758-1.166,3.141,3.141,0,0,1,1.166-.758,5.611,5.611,0,0,1,1.883-.349c1.069-.049,1.39-.059,4.1-.059m0-1.827c-2.754,0-3.1.012-4.181.061a7.443,7.443,0,0,0-2.461.471,4.97,4.97,0,0,0-1.8,1.17,4.97,4.97,0,0,0-1.17,1.8,7.441,7.441,0,0,0-.471,2.461c-.049,1.082-.061,1.427-.061,4.181s.012,3.1.061,4.181a7.441,7.441,0,0,0,.471,2.461,4.969,4.969,0,0,0,1.17,1.8,4.969,4.969,0,0,0,1.8,1.17,7.444,7.444,0,0,0,2.461.471c1.082.049,1.427.061,4.181.061s3.1-.012,4.181-.061a7.444,7.444,0,0,0,2.461-.471,4.97,4.97,0,0,0,1.8-1.17,4.969,4.969,0,0,0,1.169-1.8,7.439,7.439,0,0,0,.471-2.461c.049-1.081.061-1.427.061-4.181s-.012-3.1-.061-4.181a7.439,7.439,0,0,0-.471-2.461,4.97,4.97,0,0,0-1.169-1.8,4.971,4.971,0,0,0-1.8-1.17,7.444,7.444,0,0,0-2.461-.471c-1.081-.049-1.427-.061-4.181-.061" transform="translate(531.912 -18.017)" fill="#fff"/>
  <path id="Path_35" data-name="Path 35" d="M-483.049,61.673a5.207,5.207,0,0,0-5.207,5.207,5.207,5.207,0,0,0,5.207,5.207,5.207,5.207,0,0,0,5.207-5.207,5.207,5.207,0,0,0-5.207-5.207m0,8.587a3.38,3.38,0,0,1-3.38-3.38,3.38,3.38,0,0,1,3.38-3.38,3.38,3.38,0,0,1,3.38,3.38,3.38,3.38,0,0,1-3.38,3.38" transform="translate(493.189 -56.74)" fill="#fff"/>
  <path id="Path_36" data-name="Path 36" d="M-402.608,50.3a1.217,1.217,0,0,1-1.217,1.217,1.217,1.217,0,0,1-1.217-1.217,1.217,1.217,0,0,1,1.217-1.217,1.217,1.217,0,0,1,1.217,1.217" transform="translate(419.378 -45.574)" fill="#fff"/>
</svg>
