<svg xmlns="http://www.w3.org/2000/svg" width="21.281" height="17.338" viewBox="0 0 21.281 17.338">
  <g id="Group_28" data-name="Group 28" transform="translate(-334.172 -46.882)">
    <path id="Path_39" data-name="Path 39" d="M341.2,64.22h-.711a.9.9,0,0,0-.1-.014,11.521,11.521,0,0,1-1.314-.115,12.333,12.333,0,0,1-4.834-1.766c-.025-.015-.048-.035-.071-.052l.006-.019a8.8,8.8,0,0,0,3.373-.272,8.482,8.482,0,0,0,3.011-1.531,4.682,4.682,0,0,1-1.729-.423,4.475,4.475,0,0,1-1.43-1.068,3.788,3.788,0,0,1-.859-1.558,4.134,4.134,0,0,0,1.881-.078,4.569,4.569,0,0,1-1.783-.86,4.33,4.33,0,0,1-1.228-1.536A4.04,4.04,0,0,1,335,53a5.726,5.726,0,0,0,.927.361,3.6,3.6,0,0,0,.985.144,4.388,4.388,0,0,1-1.783-2.65,4.34,4.34,0,0,1,.48-3.178,12.489,12.489,0,0,0,4.022,3.244,12.339,12.339,0,0,0,4.988,1.33c-.007-.052-.01-.086-.017-.119a4.234,4.234,0,0,1,.2-2.429,4.3,4.3,0,0,1,3.4-2.769c.131-.024.265-.037.4-.055h.6c.154.022.309.039.462.066a4.31,4.31,0,0,1,2.347,1.234.174.174,0,0,0,.189.058c.187-.05.377-.089.563-.14a8.676,8.676,0,0,0,1.973-.824c.033-.018.068-.032.1-.048l.017.023a4.461,4.461,0,0,1-1.846,2.347.2.2,0,0,0,.074,0,8.673,8.673,0,0,0,2.042-.531l.331-.13v.019c-.022.026-.046.05-.065.078a8.822,8.822,0,0,1-2.012,2.084.215.215,0,0,0-.1.2,12.231,12.231,0,0,1-.1,2.007,13,13,0,0,1-3.795,7.549,11.592,11.592,0,0,1-2.1,1.61,12.158,12.158,0,0,1-5.9,1.711C341.327,64.206,341.266,64.214,341.2,64.22Z" transform="translate(0 0)" fill="#fff"/>
  </g>
</svg>
