<svg id="Group_22" data-name="Group 22" xmlns="http://www.w3.org/2000/svg" width="10.51" height="20.209" viewBox="0 0 10.51 20.209">
  <path id="Path_33" data-name="Path 33" d="M-897.895,54.8h-3.72c0-.054-.009-.108-.009-.161q0-4.452,0-8.9v-.158h-3.107v-3.6h3.107v-.149c0-.868,0-1.736,0-2.6a5.587,5.587,0,0,1,.329-1.921,3.888,3.888,0,0,1,1.983-2.229,4.752,4.752,0,0,1,2.1-.483c.785,0,1.571.038,2.356.066.211.008.421.038.629.058v3.237h-.148c-.574,0-1.147-.007-1.72,0a4.059,4.059,0,0,0-.737.073,1.179,1.179,0,0,0-1,1,3.775,3.775,0,0,0-.059.657c-.007.721,0,1.441,0,2.162v.139h3.551l-.466,3.6h-3.085v.162q0,4.447,0,8.893C-897.885,54.7-897.891,54.749-897.895,54.8Z" transform="translate(904.731 -34.594)" fill="#fff"/>
</svg>
