<?xml version="1.0" encoding="UTF-8"?>
<svg xmlns="http://www.w3.org/2000/svg" width="709.352" height="529.612" viewBox="0 0 709.352 529.612">
  <g id="Group_54" data-name="Group 54" transform="translate(-751.937 -62.597)">
    <g id="Group_196" data-name="Group 196" transform="translate(1351.361 -199.617)">
      <path id="Path_173" data-name="Path 173" d="M-575.385,451.286l-10.28,13.094a1.345,1.345,0,0,0,0,1.661l.543.692c-.392-.182-.851-.39-1.194-.555,68.94,123.34,172.788,206.078,179.3,211.187l17.1,13.422a1.345,1.345,0,0,0,1.661,0l17.07-13.4c.017-.016.037-.029.056-.044L-359.257,669a1.349,1.349,0,0,1,1.777.207c44.961,50.245,83.335,80.815,87.213,83.859l17.1,13.421a1.341,1.341,0,0,0,1.661,0l17.1-13.421c3.808-2.987,40.878-32.528,84.784-81.156a1.346,1.346,0,0,1,1.771-.2l8.022,5.637c.02.014.04.028.059.044l17.069,13.4a1.345,1.345,0,0,0,1.661,0l17.1-13.422c6.514-5.11,110.361-87.847,179.3-211.187-.345.165-.8.373-1.194.555l.543-.692a1.345,1.345,0,0,0,0-1.661l-10.28-13.094c-4.568-5.823-89.021-111.747-209.5-161.241-15.5-6.369-39.11-11.64-55.708-13.971-20.143-2.828-31.566-3.311-52.724-3.311a482.462,482.462,0,0,0-53.43,2.95,239.784,239.784,0,0,0-70.682,19.379c-114.2,51.289-193.343,150.561-197.762,156.193" transform="translate(7.274 5.854)" fill="#1e1e1c"></path>
      <path id="Path_174" data-name="Path 174" d="M-243.595,485.913c.064-.266.134-.529.2-.795.154-.648.294-1.3.439-1.953.2-.914.4-1.83.589-2.751.137-.673.266-1.348.393-2.025.171-.91.339-1.822.494-2.738q.177-1.029.339-2.062.217-1.376.409-2.763c.095-.687.19-1.376.277-2.068.118-.941.224-1.886.327-2.832.072-.678.146-1.354.211-2.034.093-.987.17-1.979.244-2.971.048-.644.1-1.288.143-1.934.068-1.095.118-2.2.163-3.3.022-.549.056-1.095.073-1.644q.077-2.479.081-4.974,0-1.532-.028-3.054c-.008-.344-.022-.687-.031-1.031-.016-.67-.031-1.343-.058-2.011-.016-.406-.037-.807-.056-1.211-.028-.6-.053-1.211-.089-1.815-.023-.434-.057-.866-.085-1.3-.037-.571-.072-1.143-.115-1.714-.034-.445-.076-.889-.115-1.334-.047-.554-.09-1.109-.143-1.661-.044-.449-.093-.9-.14-1.344-.056-.546-.112-1.093-.174-1.639-.053-.453-.112-.9-.166-1.354-.067-.536-.131-1.073-.2-1.608-.062-.457-.131-.913-.2-1.368-.075-.526-.148-1.053-.227-1.577-.071-.46-.149-.917-.224-1.378-.084-.516-.165-1.034-.255-1.549-.081-.462-.165-.922-.25-1.384-.093-.509-.183-1.017-.281-1.525-.087-.46-.183-.919-.277-1.379-.1-.505-.2-1.011-.308-1.514-.1-.456-.2-.91-.3-1.364q-.166-.756-.337-1.51c-.106-.454-.218-.908-.327-1.361-.12-.5-.238-.994-.362-1.49-.115-.456-.235-.908-.353-1.362-.129-.49-.257-.98-.389-1.469-.123-.451-.25-.9-.376-1.35q-.205-.735-.417-1.465-.2-.672-.4-1.34c-.146-.482-.292-.966-.442-1.446-.14-.448-.285-.894-.428-1.34-.154-.476-.308-.953-.467-1.429-.148-.442-.3-.885-.449-1.325-.162-.474-.327-.95-.491-1.423-.157-.44-.314-.877-.474-1.314-.171-.47-.342-.939-.518-1.406-.163-.439-.331-.874-.5-1.311-.18-.463-.359-.928-.543-1.39-.169-.432-.345-.863-.519-1.294-.188-.463-.376-.925-.569-1.385-.177-.428-.359-.854-.541-1.28q-.294-.686-.594-1.37-.278-.637-.563-1.269-.308-.681-.617-1.356c-.193-.421-.39-.841-.588-1.261q-.317-.67-.637-1.337c-.2-.42-.407-.837-.614-1.253-.219-.443-.438-.882-.661-1.322-.21-.415-.421-.827-.634-1.239q-.341-.655-.683-1.308c-.218-.411-.438-.821-.658-1.23q-.352-.648-.707-1.292c-.224-.406-.449-.809-.676-1.211q-.364-.644-.734-1.284-.345-.6-.7-1.2-.373-.634-.753-1.266c-.241-.4-.48-.795-.721-1.189q-.385-.623-.773-1.246c-.246-.392-.493-.785-.743-1.175-.263-.412-.53-.824-.8-1.235-.253-.386-.5-.771-.759-1.155q-.408-.613-.823-1.224c-.258-.379-.516-.76-.776-1.138q-.422-.609-.848-1.211c-.263-.373-.526-.746-.793-1.12-.286-.4-.578-.8-.868-1.194-.271-.372-.541-.742-.815-1.109-.294-.395-.592-.787-.889-1.179-.277-.364-.552-.726-.83-1.088-.3-.392-.611-.782-.917-1.171-.28-.356-.558-.712-.843-1.065q-.466-.581-.941-1.155c-.286-.351-.571-.7-.86-1.05-.316-.381-.637-.759-.959-1.137-.292-.347-.585-.694-.882-1.037-.323-.375-.652-.746-.98-1.118-.3-.341-.594-.679-.9-1.017-.333-.372-.67-.74-1.006-1.11-.3-.331-.6-.664-.908-.994-.341-.367-.686-.731-1.031-1.095-.306-.325-.611-.65-.921-.973-.35-.364-.7-.723-1.056-1.084-.311-.316-.619-.634-.933-.948-.358-.361-.72-.717-1.084-1.073-.312-.309-.623-.619-.938-.925-.372-.358-.745-.711-1.118-1.065-.314-.3-.625-.6-.942-.894-.381-.356-.767-.707-1.151-1.059-.314-.289-.627-.58-.944-.866-.393-.356-.793-.7-1.191-1.056-.313-.277-.622-.557-.938-.83-.41-.358-.827-.709-1.241-1.062-.308-.263-.613-.527-.922-.787-.442-.372-.889-.737-1.336-1.1-.288-.236-.572-.474-.858-.707-.524-.423-1.053-.84-1.58-1.255-.216-.171-.431-.345-.648-.516q-1.122-.875-2.264-1.732c-.064-.048-.128-.095-.191-.141q-1.045-.784-2.1-1.55c-.257-.187-.518-.367-.776-.552-.516-.368-1.029-.736-1.549-1.1-.311-.218-.628-.431-.941-.645-.471-.322-.941-.647-1.413-.964-.339-.227-.681-.449-1.02-.673-.454-.3-.907-.6-1.364-.894-.356-.23-.717-.454-1.076-.681-.445-.283-.889-.568-1.339-.846-.367-.227-.74-.449-1.11-.675-.443-.271-.886-.543-1.333-.809-.378-.224-.759-.443-1.138-.664-.445-.26-.888-.521-1.336-.776-.384-.219-.771-.432-1.157-.648-.448-.25-.894-.5-1.343-.748-.393-.215-.79-.424-1.183-.636-.449-.239-.894-.48-1.344-.715-.4-.21-.8-.414-1.207-.62q-.672-.345-1.347-.687c-.407-.2-.819-.4-1.227-.6-.451-.221-.9-.443-1.354-.661-.414-.2-.827-.387-1.241-.58-.456-.213-.91-.428-1.368-.634-.417-.19-.835-.376-1.255-.563-.351-.155-.7-.313-1.057-.466a1.347,1.347,0,0,0-1.718,1.844" transform="translate(146.185 23.353)" fill="#fbb90e"></path>
      <path id="Path_175" data-name="Path 175" d="M-457.225,501.051q-.441-1.117-.869-2.244-.488-1.28-.961-2.569-.415-1.136-.818-2.276-.455-1.292-.894-2.591-.39-1.15-.764-2.306-.424-1.308-.83-2.622-.362-1.162-.706-2.325-.392-1.325-.767-2.656-.329-1.171-.648-2.346c-.24-.894-.47-1.79-.7-2.687q-.3-1.18-.589-2.363c-.218-.9-.426-1.815-.633-2.724-.179-.79-.359-1.581-.529-2.374-.2-.919-.381-1.841-.564-2.763-.159-.793-.319-1.584-.466-2.379-.176-.936-.337-1.875-.5-2.814-.135-.791-.275-1.583-.4-2.378-.152-.952-.289-1.908-.428-2.864-.115-.79-.235-1.577-.341-2.37-.131-.977-.244-1.959-.359-2.942-.093-.778-.191-1.552-.274-2.332-.107-1.011-.2-2.028-.289-3.045-.07-.756-.146-1.511-.207-2.272-.086-1.065-.149-2.138-.218-3.208-.047-.715-.1-1.429-.14-2.146-.064-1.193-.1-2.39-.146-3.587-.022-.6-.054-1.2-.07-1.8q-.072-2.706-.075-5.427,0-2.75.076-5.48c.016-.611.048-1.218.072-1.827.042-1.208.084-2.416.149-3.62.039-.723.093-1.441.14-2.161.07-1.084.137-2.169.224-3.247.061-.767.138-1.53.208-2.294.093-1.028.187-2.056.3-3.079.084-.784.182-1.564.275-2.346.118-1,.236-1.993.37-2.987.106-.792.224-1.58.339-2.368.141-.977.286-1.95.443-2.92.128-.795.264-1.584.4-2.376q.25-1.439.516-2.872.224-1.187.463-2.367.285-1.423.589-2.836c.169-.787.344-1.569.521-2.351q.324-1.409.664-2.81c.19-.776.379-1.55.578-2.323q.359-1.4.739-2.794c.207-.762.415-1.525.63-2.284q.4-1.4.818-2.785c.224-.748.446-1.5.68-2.242.291-.933.6-1.861.9-2.791.238-.725.471-1.454.718-2.175.323-.949.659-1.889,1-2.832.247-.694.49-1.389.745-2.079.362-.981.742-1.956,1.118-2.93.249-.641.49-1.286.743-1.923.428-1.071.874-2.133,1.319-3.2.222-.53.435-1.067.662-1.6.022-.05.042-.1.062-.151a1.342,1.342,0,0,0-2.035-1.606l0,0c-.036.025-.07.053-.106.079q-1.92,1.416-3.813,2.838c-.448.337-.889.676-1.336,1.014-.843.638-1.687,1.277-2.524,1.916-.513.393-1.02.788-1.532,1.183-.759.585-1.519,1.169-2.27,1.756-.536.417-1.065.835-1.6,1.253-.714.56-1.427,1.12-2.133,1.679-.549.435-1.09.869-1.634,1.3-.681.544-1.364,1.089-2.037,1.633-.55.443-1.093.886-1.637,1.328-.659.536-1.319,1.071-1.97,1.606-.544.445-1.081.889-1.62,1.336q-.966.8-1.922,1.592c-.536.446-1.067.893-1.6,1.337l-1.878,1.581-1.566,1.331q-.924.788-1.84,1.574-.777.665-1.543,1.329c-.6.521-1.2,1.04-1.794,1.56q-.76.66-1.511,1.322-.882.772-1.751,1.541l-1.485,1.319c-.578.513-1.151,1.026-1.723,1.538l-1.434,1.289q-.851.77-1.69,1.533c-.466.424-.935.851-1.395,1.272q-.84.767-1.665,1.529c-.451.417-.9.832-1.348,1.246-.552.512-1.1,1.02-1.64,1.527-.431.4-.866.809-1.294,1.21-.547.515-1.087,1.025-1.627,1.535-.412.39-.827.781-1.235,1.168-.543.516-1.076,1.028-1.612,1.541-.39.373-.784.75-1.171,1.123-.547.526-1.084,1.048-1.622,1.569-.361.35-.728.7-1.084,1.05-.585.569-1.155,1.13-1.729,1.693-.3.291-.6.585-.889.874-.74.728-1.466,1.448-2.186,2.164l-.359.358q-1.255,1.25-2.468,2.474l-.676.684c-.574.582-1.149,1.163-1.709,1.734-.286.291-.561.575-.844.865-.49.5-.981,1-1.46,1.5-.3.306-.586.606-.88.911-.448.463-.9.927-1.334,1.382-.308.32-.606.633-.907.949-.41.429-.821.857-1.221,1.278-.3.32-.6.633-.9.948l-1.146,1.214c-.3.316-.588.627-.88.939-.361.386-.723.771-1.074,1.149l-.843.907c-.348.378-.7.753-1.036,1.121l-.794.861c-.33.361-.659.72-.981,1.073-.26.283-.515.564-.77.843-.308.339-.614.675-.913,1.006-.25.277-.5.551-.742.821l-.431.48a1.323,1.323,0,0,0,0,1.762l.4.44.759.841.857.944c.263.289.532.585.8.88l.9.98c.28.306.563.613.849.924l.947,1.022.885.955q.492.527,1,1.065.452.488.917.981c.345.364.693.734,1.045,1.106q.478.506.964,1.018.529.557,1.071,1.124c.339.354.678.709,1.023,1.068.366.381.736.767,1.109,1.152.351.364.7.728,1.06,1.1.376.389.759.782,1.143,1.176.369.378.737.756,1.112,1.138.392.4.79.8,1.188,1.208l1.141,1.155c.406.411.82.826,1.233,1.241.39.392.781.784,1.177,1.179.423.423.852.849,1.281,1.275.4.4.8.8,1.21,1.2.434.429.877.862,1.317,1.294.417.411.833.819,1.256,1.232.443.432.893.869,1.342,1.3.434.42.866.84,1.3,1.263.459.443.924.889,1.389,1.334.442.425.883.848,1.331,1.274.473.451.953.9,1.432,1.359.454.429.9.858,1.364,1.291.485.456.977.914,1.466,1.373.468.437.933.874,1.407,1.314.5.463,1,.928,1.507,1.393.477.44.95.88,1.434,1.322.507.468,1.023.936,1.539,1.406.491.449.983.9,1.482,1.35.521.473,1.05.947,1.577,1.42.5.451,1,.9,1.5,1.351.543.485,1.095.973,1.644,1.462.5.445,1,.889,1.51,1.337.558.491,1.124.986,1.687,1.479.512.449,1.022.9,1.539,1.347.571.495,1.149.992,1.726,1.49.521.449,1.039.9,1.566,1.35.589.5,1.186,1.009,1.78,1.514.526.448,1.048.894,1.578,1.34.608.515,1.227,1.029,1.841,1.544.527.442,1.053.883,1.584,1.326.638.529,1.283,1.059,1.927,1.589.519.428,1.036.857,1.56,1.286.672.549,1.351,1.1,2.029,1.648.51.412,1.014.826,1.529,1.238.7.566,1.415,1.134,2.126,1.7.5.4.991.795,1.493,1.193.782.619,1.577,1.239,2.37,1.86.437.344.869.686,1.308,1.028q1.7,1.327,3.438,2.653c.1.078.2.155.3.232q1.885,1.444,3.8,2.883c.4.3.8.594,1.2.891.865.647,1.729,1.294,2.6,1.937a1.346,1.346,0,0,0,.26.151,1.345,1.345,0,0,0,1.765-1.776c-.123-.285-.235-.574-.358-.86-.311-.734-.614-1.471-.917-2.21-.347-.846-.692-1.693-1.028-2.544" transform="translate(29.572 45.786)" fill="#fff"></path>
      <path id="Path_176" data-name="Path 176" d="M-252.527,501.051c.294-.745.582-1.494.869-2.244q.487-1.28.962-2.569.413-1.136.815-2.276c.3-.861.6-1.724.9-2.591q.39-1.15.765-2.306.422-1.308.83-2.622.357-1.162.7-2.325.394-1.325.765-2.656.334-1.171.65-2.346.357-1.341.7-2.687c.2-.787.4-1.574.589-2.363.219-.9.428-1.815.631-2.724.18-.79.361-1.581.53-2.374.2-.919.381-1.841.564-2.763.159-.793.319-1.584.466-2.379.176-.936.336-1.875.5-2.814.135-.791.275-1.583.4-2.378.152-.952.289-1.908.429-2.864.113-.79.233-1.577.339-2.37.131-.977.244-1.959.359-2.942.093-.778.191-1.552.274-2.332.107-1.011.2-2.028.289-3.045.068-.756.146-1.511.207-2.272.086-1.065.149-2.138.218-3.208.047-.715.1-1.429.142-2.146.062-1.193.1-2.39.145-3.587.022-.6.053-1.2.07-1.8q.072-2.706.075-5.427,0-2.75-.076-5.48c-.016-.611-.05-1.218-.072-1.827-.042-1.208-.084-2.416-.148-3.62-.04-.723-.095-1.441-.141-2.161-.068-1.084-.137-2.169-.224-3.247-.061-.767-.138-1.53-.208-2.294-.093-1.028-.187-2.056-.3-3.079-.086-.784-.182-1.564-.275-2.346-.118-1-.236-1.993-.37-2.987-.106-.792-.224-1.58-.339-2.368-.143-.977-.286-1.95-.443-2.92-.128-.795-.264-1.584-.4-2.376q-.25-1.439-.516-2.872-.224-1.187-.463-2.367-.287-1.423-.589-2.836c-.17-.787-.344-1.569-.521-2.351q-.322-1.409-.664-2.81-.282-1.164-.577-2.323-.362-1.4-.74-2.794c-.208-.762-.415-1.525-.63-2.284-.264-.931-.541-1.858-.818-2.785-.224-.748-.446-1.5-.678-2.242-.292-.933-.6-1.861-.9-2.791-.239-.725-.474-1.454-.72-2.175-.322-.949-.661-1.889-1-2.832-.247-.694-.49-1.389-.743-2.079-.365-.981-.743-1.956-1.121-2.93-.247-.641-.487-1.286-.742-1.923-.429-1.071-.874-2.133-1.319-3.2-.222-.53-.435-1.067-.662-1.6-.022-.05-.04-.1-.062-.151a1.342,1.342,0,0,1,2.035-1.606l0,0,.106.079q1.92,1.416,3.811,2.838c.449.337.889.676,1.337,1.014.843.638,1.687,1.277,2.524,1.916.515.393,1.022.788,1.532,1.183q1.138.877,2.27,1.756c.536.417,1.064.835,1.6,1.253.712.56,1.427,1.12,2.133,1.679.549.435,1.09.869,1.634,1.3q1.024.816,2.039,1.633c.549.443,1.092.886,1.636,1.328.659.536,1.319,1.071,1.97,1.606.544.445,1.081.889,1.62,1.336q.963.8,1.922,1.592.8.67,1.6,1.337l1.878,1.581c.526.445,1.045.888,1.564,1.331q.926.788,1.841,1.574.777.665,1.543,1.329.9.781,1.8,1.56.758.66,1.51,1.322.882.772,1.751,1.541.746.662,1.485,1.319.865.77,1.723,1.538l1.434,1.289c.568.513,1.129,1.025,1.69,1.533l1.4,1.272q.837.767,1.662,1.529c.451.417.9.832,1.35,1.246.552.512,1.1,1.02,1.639,1.527.432.4.868.809,1.294,1.21.55.515,1.088,1.025,1.628,1.535.414.39.827.781,1.235,1.168.544.516,1.076,1.028,1.611,1.541.392.373.787.75,1.172,1.123.549.526,1.084,1.048,1.622,1.569.361.35.728.7,1.084,1.05.585.569,1.155,1.13,1.729,1.693.3.291.6.585.891.874q1.108,1.092,2.183,2.164l.362.358q1.252,1.25,2.466,2.474c.23.23.451.456.676.684.574.582,1.149,1.163,1.71,1.734.285.291.561.575.843.865.49.5.981,1,1.46,1.5.3.306.586.606.88.911.448.463.9.927,1.334,1.382.308.32.606.633.908.949l1.219,1.278c.3.32.6.633.9.948.386.407.771.815,1.148,1.214.3.316.588.627.88.939.361.386.723.771,1.074,1.149.286.306.564.606.843.907.35.378.7.753,1.036,1.121.269.291.532.577.793.861.333.361.662.72.984,1.073.26.283.515.564.768.843.308.339.614.675.913,1.006.25.277.5.551.742.821l.431.48a1.321,1.321,0,0,1,0,1.762c-.132.146-.261.291-.395.44-.25.277-.5.557-.76.841-.281.309-.568.624-.855.944-.266.289-.533.585-.805.88q-.441.485-.9.98c-.278.306-.561.613-.847.924l-.945,1.022-.886.955q-.49.527-1,1.065-.455.488-.921.981l-1.043,1.106c-.319.337-.639.676-.966,1.018-.351.372-.711.746-1.07,1.124-.337.354-.678.709-1.023,1.068-.365.381-.735.767-1.107,1.152l-1.06,1.1c-.378.389-.76.782-1.144,1.176-.369.378-.737.756-1.112,1.138-.392.4-.79.8-1.188,1.208l-1.14,1.155c-.407.411-.821.826-1.235,1.241-.39.392-.781.784-1.177,1.179-.423.423-.852.849-1.281,1.275-.4.4-.8.8-1.211,1.2-.434.429-.874.862-1.315,1.294-.417.411-.833.819-1.256,1.232-.443.432-.893.869-1.342,1.3-.434.42-.866.84-1.3,1.263-.459.443-.925.889-1.39,1.334-.442.425-.882.848-1.329,1.274-.473.451-.953.9-1.432,1.359-.454.429-.9.858-1.364,1.291-.485.456-.977.914-1.466,1.373-.468.437-.935.874-1.407,1.314-.5.463-1,.928-1.505,1.393-.477.44-.953.88-1.434,1.322-.508.468-1.025.936-1.541,1.406-.493.449-.983.9-1.482,1.35-.521.473-1.048.947-1.575,1.42-.5.451-1,.9-1.5,1.351-.544.485-1.1.973-1.645,1.462-.5.445-1,.889-1.51,1.337-.558.491-1.124.986-1.687,1.479-.512.449-1.023.9-1.539,1.347-.571.495-1.149.992-1.726,1.49-.521.449-1.04.9-1.567,1.35-.588.5-1.185,1.009-1.779,1.514-.526.448-1.046.894-1.578,1.34-.61.515-1.225,1.029-1.841,1.544-.527.442-1.051.883-1.584,1.326-.636.529-1.283,1.059-1.925,1.589-.521.428-1.036.857-1.561,1.286-.672.549-1.351,1.1-2.031,1.648-.508.412-1.012.826-1.525,1.238-.7.566-1.417,1.134-2.127,1.7-.5.4-.99.795-1.493,1.193-.782.619-1.577,1.239-2.37,1.86-.437.344-.869.686-1.309,1.028q-1.7,1.327-3.436,2.653l-.3.232q-1.887,1.444-3.8,2.883c-.4.3-.8.594-1.2.891-.866.647-1.729,1.294-2.6,1.937a1.3,1.3,0,0,1-.26.151,1.345,1.345,0,0,1-1.765-1.776c.123-.285.236-.574.356-.86.313-.734.616-1.471.919-2.21q.522-1.269,1.028-2.544" transform="translate(191.169 45.786)" fill="#fff"></path>
      <path id="Path_177" data-name="Path 177" d="M-461.742,486.107l89.786-179.864a1.346,1.346,0,0,0-1.718-1.843q-.529.231-1.057.466c-.418.187-.838.372-1.255.561-.459.208-.913.421-1.368.634-.414.193-.829.386-1.239.582-.454.218-.9.439-1.354.659-.411.2-.821.4-1.228.6-.451.225-.9.457-1.347.687q-.6.308-1.207.619c-.449.236-.9.477-1.343.717-.395.211-.791.421-1.185.636-.449.246-.894.5-1.34.746-.387.216-.774.431-1.158.648-.448.257-.893.518-1.336.777-.381.221-.76.44-1.138.664-.446.266-.889.538-1.333.807-.372.226-.742.448-1.11.676-.451.278-.9.566-1.347.849-.356.225-.714.448-1.067.676-.46.3-.916.6-1.373.9-.337.222-.676.442-1.012.667-.468.314-.931.636-1.4.955-.32.219-.642.435-.961.656-.5.351-1,.711-1.5,1.067-.274.2-.549.387-.821.583-.7.507-1.4,1.023-2.09,1.541-.067.051-.134.1-.2.149q-1.141.856-2.264,1.734c-.218.169-.432.345-.648.515-.527.417-1.057.833-1.58,1.255-.288.233-.572.473-.857.707-.446.367-.9.731-1.337,1.1-.306.258-.608.521-.913.779-.418.358-.838.711-1.252,1.073-.313.269-.617.546-.927.819-.4.353-.8.706-1.2,1.065-.316.285-.625.574-.939.86-.386.355-.774.707-1.157,1.065-.314.294-.624.592-.935.886-.375.358-.751.714-1.123,1.073-.317.306-.627.616-.939.924-.362.358-.726.714-1.085,1.074-.313.313-.62.631-.93.947-.353.361-.707.72-1.057,1.085-.309.32-.613.645-.919.97-.345.365-.692.729-1.034,1.1-.3.328-.6.661-.907.991-.336.37-.673.737-1.006,1.11-.3.337-.6.68-.9,1.02-.327.372-.655.742-.977,1.116-.3.344-.591.692-.885,1.039-.319.378-.639.753-.955,1.132-.291.35-.58.7-.868,1.057-.313.382-.625.763-.933,1.147-.285.355-.564.714-.847,1.07-.3.389-.613.777-.914,1.169-.28.361-.555.725-.832,1.088q-.445.588-.888,1.179c-.274.367-.546.739-.816,1.109-.289.4-.578.791-.865,1.191-.269.375-.533.751-.8,1.127-.281.4-.563.8-.84,1.2-.263.381-.522.765-.782,1.148q-.413.606-.819,1.216-.383.578-.759,1.16c-.267.41-.535.821-.8,1.233q-.373.583-.74,1.172-.39.623-.776,1.252-.362.588-.717,1.183c-.253.422-.507.844-.756,1.269-.235.4-.465.8-.7,1.2-.246.426-.491.855-.732,1.283-.227.4-.453.807-.676,1.213q-.357.644-.706,1.292-.333.613-.659,1.232-.343.651-.683,1.3-.32.618-.634,1.241c-.224.44-.443.882-.662,1.325q-.308.623-.611,1.25c-.215.443-.428.889-.638,1.334-.2.423-.4.844-.592,1.269-.207.448-.409.9-.613,1.348-.19.423-.379.849-.568,1.275-.2.454-.395.908-.589,1.365-.184.428-.365.855-.546,1.286q-.287.688-.566,1.379c-.176.432-.348.863-.521,1.3q-.273.7-.541,1.393c-.168.435-.334.869-.5,1.306-.176.468-.347.939-.518,1.409-.16.437-.319.874-.473,1.314q-.252.709-.493,1.421-.229.662-.451,1.326-.236.711-.465,1.429c-.145.446-.288.891-.428,1.34q-.224.718-.44,1.44c-.135.449-.272.9-.4,1.35-.141.484-.278.97-.415,1.455-.126.453-.254.9-.376,1.356-.134.488-.261.978-.389,1.469-.12.454-.238.906-.353,1.362-.126.495-.244.992-.364,1.49-.109.453-.219.9-.325,1.359-.117.5-.225,1-.337,1.5-.1.459-.2.916-.3,1.375-.106.5-.207,1.006-.308,1.511-.093.459-.187.916-.275,1.376-.1.513-.191,1.028-.285,1.543-.082.456-.168.91-.247,1.367-.09.518-.173,1.039-.258,1.56-.073.457-.149.911-.219,1.37-.082.524-.154,1.051-.23,1.577-.065.456-.134.911-.194,1.368-.072.53-.135,1.062-.2,1.6-.056.456-.117.911-.169,1.37-.062.54-.115,1.082-.171,1.623-.048.452-.1.9-.141,1.354-.053.552-.1,1.107-.145,1.661-.037.446-.079.889-.113,1.336-.044.571-.079,1.141-.117,1.712-.028.434-.061.866-.085,1.3-.034.6-.059,1.211-.087,1.816-.019.4-.042.805-.057,1.21-.025.669-.04,1.34-.058,2.011-.009.344-.023.687-.03,1.031q-.028,1.525-.03,3.054,0,2.5.082,4.977c.017.547.05,1.09.073,1.636.045,1.1.093,2.206.162,3.3.04.647.1,1.291.145,1.936.075.99.151,1.983.244,2.968.064.681.14,1.357.213,2.035.1.947.205,1.891.325,2.832.087.692.18,1.379.277,2.067q.194,1.388.409,2.766.163,1.033.337,2.06.236,1.371.5,2.737c.128.676.257,1.353.393,2.026.187.921.386,1.835.588,2.748.145.653.288,1.306.44,1.956" transform="translate(72.602 23.353)" fill="#fbb90e"></path>
      <path id="Path_178" data-name="Path 178" d="M-339.686,347.987l-88.782,186.84h177.694l-21.143-42.509h-92.509l32.253-71.647h24.708Z" transform="translate(94.873 47.6)" fill="#fbb90e"></path>
      <path id="Path_179" data-name="Path 179" d="M108.647,470.161l.583-.742a1.441,1.441,0,0,0,0-1.78L98.208,453.6c-4.9-6.243-95.435-119.8-224.6-172.861-16.619-6.826-41.929-12.479-59.723-14.977-21.594-3.032-33.84-3.548-56.526-3.548a517.344,517.344,0,0,0-57.28,3.163,257.018,257.018,0,0,0-75.776,20.774C-498.116,341.137-582.968,447.563-587.7,453.6l-11.021,14.038a1.441,1.441,0,0,0,0,1.78l.583.742c-.421-.194-.913-.418-1.281-.6C-525.516,601.8-414.184,690.494-407.2,695.971l18.33,14.391a1.441,1.441,0,0,0,1.78,0L-368.79,696c.02-.016.04-.031.061-.045L-356,687.005a1.443,1.443,0,0,1,1.9.222c48.2,53.867,89.341,86.64,93.5,89.9l18.33,14.391a1.443,1.443,0,0,0,1.782,0l18.33-14.391c4.082-3.2,43.822-34.87,90.892-87a1.444,1.444,0,0,1,1.9-.218l8.6,6.044c.02.014.04.03.061.045l18.3,14.366a1.441,1.441,0,0,0,1.78,0l18.33-14.391c6.983-5.477,118.315-94.176,192.223-226.406-.369.177-.861.4-1.281.6M-38.043,625.48-239.589,306.028-176.214,475.2h-46.263l-24.756,55.366h91.759l56.247,150.148-12.934,10.155a1.326,1.326,0,0,1-1.639,0l-16.835-13.217c-.019-.014-.036-.028-.056-.042l-7.912-5.559a1.329,1.329,0,0,0-1.748.2c-43.3,47.961-79.861,77.094-83.616,80.04l-17.185-117.237-18.179,117.237c-3.824-3-41.67-33.149-86.014-82.7a1.328,1.328,0,0,0-1.751-.205l-11.709,8.229-.058.042L-375.7,690.872a1.326,1.326,0,0,1-1.639,0l-11.914-9.353,127.534-318.627L-448.678,628.268c-36.6-36.6-84.743-91.627-122.356-158.918.341.162.792.369,1.179.547l-.535-.683a1.324,1.324,0,0,1,0-1.637l10.138-12.914c4.357-5.554,82.417-103.462,195.042-154.046A236.467,236.467,0,0,1-295.5,281.506a475.775,475.775,0,0,1,52.694-2.909c20.869,0,32.135.476,52,3.265,16.367,2.3,39.653,7.5,54.941,13.777C-17.04,344.455,66.249,448.92,70.756,454.664l10.138,12.914a1.329,1.329,0,0,1,0,1.637l-.535.683c.387-.179.838-.386,1.177-.547C44.869,534.954-1.806,588.9-38.043,625.48" transform="translate(0 0)" fill="#fff"></path>
    </g>
  </g>
</svg>
