<svg xmlns="http://www.w3.org/2000/svg" width="34" height="34" viewBox="0 0 34 34">
  <g id="Group_68" data-name="Group 68" transform="translate(-287 -2542)">
    <g id="Ellipse_7" data-name="Ellipse 7" transform="translate(287 2542)" fill="none" stroke="#fff" stroke-width="1.3">
      <circle cx="17" cy="17" r="17" stroke="none"/>
      <circle cx="17" cy="17" r="16.35" fill="none"/>
    </g>
    <g id="Group_67" data-name="Group 67" transform="translate(-569.899 2517.58)">
      <path id="Path_89" data-name="Path 89" d="M874.607,49.139h-2.842c0-.041-.007-.082-.007-.123q0-3.4,0-6.8v-.121h-2.373V39.343h2.373v-.114c0-.663,0-1.326,0-1.989a4.27,4.27,0,0,1,.251-1.467,2.97,2.97,0,0,1,1.515-1.7,3.631,3.631,0,0,1,1.608-.369c.6,0,1.2.029,1.8.051.161.006.322.029.481.045v2.473H877.3c-.438,0-.876-.005-1.314,0a3.092,3.092,0,0,0-.563.056.9.9,0,0,0-.761.762,2.894,2.894,0,0,0-.045.5c-.005.55,0,1.1,0,1.652v.106h2.712l-.356,2.748h-2.357v.124q0,3.4,0,6.793C874.614,49.056,874.61,49.1,874.607,49.139Z" fill="#fff"/>
    </g>
  </g>
</svg>
