<svg xmlns="http://www.w3.org/2000/svg" width="34" height="34" viewBox="0 0 34 34">
  <g id="Group_69" data-name="Group 69" transform="translate(-4767.873 -27.764)">
    <g id="Ellipse_8" data-name="Ellipse 8" transform="translate(4767.873 27.764)" fill="none" stroke="#fff" stroke-width="1.3">
      <circle cx="17" cy="17" r="17" stroke="none"/>
      <circle cx="17" cy="17" r="16.35" fill="none"/>
    </g>
    <path id="Path_90" data-name="Path 90" d="M4784.873,38.069c2.181,0,2.439.008,3.3.048a4.52,4.52,0,0,1,1.517.281,2.7,2.7,0,0,1,1.55,1.55,4.5,4.5,0,0,1,.281,1.516c.04.861.048,1.12.048,3.3s-.008,2.439-.048,3.3a4.505,4.505,0,0,1-.281,1.517,2.7,2.7,0,0,1-1.55,1.55,4.52,4.52,0,0,1-1.517.281c-.861.039-1.119.048-3.3.048s-2.439-.008-3.3-.048a4.516,4.516,0,0,1-1.516-.281,2.7,2.7,0,0,1-1.55-1.55,4.5,4.5,0,0,1-.281-1.517c-.04-.861-.047-1.119-.047-3.3s.008-2.439.047-3.3a4.5,4.5,0,0,1,.281-1.516,2.7,2.7,0,0,1,1.55-1.55,4.516,4.516,0,0,1,1.516-.281c.861-.039,1.12-.048,3.3-.048m0-1.472c-2.218,0-2.5.009-3.367.049a6,6,0,0,0-1.982.38,4.179,4.179,0,0,0-2.389,2.389,6,6,0,0,0-.379,1.982c-.04.871-.049,1.149-.049,3.367s.009,2.5.049,3.367a6,6,0,0,0,.379,1.982,4.178,4.178,0,0,0,2.389,2.389,6,6,0,0,0,1.982.38c.871.04,1.149.049,3.367.049s2.5-.009,3.367-.049a6,6,0,0,0,1.982-.38,4.175,4.175,0,0,0,2.389-2.389,6.009,6.009,0,0,0,.38-1.982c.039-.871.048-1.149.048-3.367s-.009-2.5-.048-3.367a6.009,6.009,0,0,0-.38-1.982,4.175,4.175,0,0,0-2.389-2.389,6,6,0,0,0-1.982-.38c-.871-.04-1.149-.049-3.367-.049" fill="#fff"/>
    <path id="Path_91" data-name="Path 91" d="M4824.556,80.253a4.194,4.194,0,1,0,4.194,4.194,4.194,4.194,0,0,0-4.194-4.194m0,6.916a2.722,2.722,0,1,1,2.722-2.722,2.722,2.722,0,0,1-2.722,2.722" transform="translate(-39.683 -39.683)" fill="#fff"/>
    <path id="Path_92" data-name="Path 92" d="M4905.536,68.644a.98.98,0,1,1-.979-.98.98.98,0,0,1,.979.98" transform="translate(-115.324 -28.24)" fill="#fff"/>
  </g>
</svg>
