<svg xmlns="http://www.w3.org/2000/svg" width="582.885" height="294.965" viewBox="0 0 582.885 294.965">
  <g id="Group_184" data-name="Group 184" transform="translate(-562.647 -350.806)">
    <g id="Group_179" data-name="Group 179" transform="translate(668.792 350.806)">
      <path id="Path_153" data-name="Path 153" d="M1160.069,492.738V353.1a2.288,2.288,0,0,0-4.075-1.429L1003.475,542.322a2.288,2.288,0,0,0,1.787,3.717H1115.47a9.8,9.8,0,0,0,7.648-3.676l34.8-43.507A9.793,9.793,0,0,0,1160.069,492.738Z" transform="translate(-801.042 -350.806)" fill="#e03046"/>
      <path id="Path_154" data-name="Path 154" d="M716.5,498.856,831.093,642.1a9.8,9.8,0,0,0,7.649,3.676H948.949a2.288,2.288,0,0,0,1.786-3.717l-232.3-290.384a2.288,2.288,0,0,0-4.075,1.429V492.738A9.793,9.793,0,0,0,716.5,498.856Z" transform="translate(-714.358 -350.806)" fill="#e03046"/>
    </g>
    <g id="Group_183" data-name="Group 183" transform="translate(562.647 443.477)">
      <g id="Group_180" data-name="Group 180" transform="translate(158.887)">
        <path id="Path_155" data-name="Path 155" d="M1130.022,491.067h9.564l.031,29.284a.685.685,0,0,0,.685.684l5.479,0a.686.686,0,0,0,.685-.686l-.03-29.279h11.994a.423.423,0,0,0,.331-.687l-4.108-5.138a1.809,1.809,0,0,0-1.415-.681h-23.216a.685.685,0,0,0-.685.685v5.136a.685.685,0,0,0,.685.685" transform="translate(-891.738 -483.65)" fill="#e9e3da"/>
        <path id="Path_156" data-name="Path 156" d="M797.2,520.354l28.055-35.106a.423.423,0,0,0-.331-.687h-7.015a1.812,1.812,0,0,0-1.415.681l-19.9,24.9v-24.9a.685.685,0,0,0-.685-.686h-5.478a.685.685,0,0,0-.685.686v35.1a.685.685,0,0,0,.686.686h5.357a1.809,1.809,0,0,0,1.415-.681" transform="translate(-789.741 -483.65)" fill="#e9e3da"/>
        <path id="Path_157" data-name="Path 157" d="M824.868,520.354l9.65-12.075,9.65,12.075a1.81,1.81,0,0,0,1.416.681h5.357a.685.685,0,0,0,.685-.686v-35.1a.686.686,0,0,0-.685-.686h-4.491a3.627,3.627,0,0,0-2.832,1.362l-27.511,34.426a.423.423,0,0,0,.331.687h7.015a1.808,1.808,0,0,0,1.415-.681m19.909-25.647v16.174l-6.463-8.087Z" transform="translate(-797.632 -483.65)" fill="#e9e3da"/>
        <path id="Path_158" data-name="Path 158" d="M1065.769,520.349l-28.055-35.106a1.809,1.809,0,0,0-1.415-.68h-5.363a.684.684,0,0,0-.685.685v35.1a.685.685,0,0,0,.685.685h5.357a1.813,1.813,0,0,0,1.415-.681l9.65-12.075,9.65,12.075a1.814,1.814,0,0,0,1.415.681h7.017a.423.423,0,0,0,.33-.687m-22.206-17.554-6.464,8.087V494.708Z" transform="translate(-861.978 -483.65)" fill="#e9e3da"/>
        <path id="Path_159" data-name="Path 159" d="M930.714,483.259a19.149,19.149,0,1,0,19.149,19.149,19.148,19.148,0,0,0-19.149-19.149m0,31.791a12.647,12.647,0,1,1,12.3-12.642,12.474,12.474,0,0,1-12.3,12.642" transform="translate(-826.331 -483.259)" fill="#e9e3da"/>
        <path id="Path_160" data-name="Path 160" d="M1101,485.247v24.9l-19.9-24.9a1.813,1.813,0,0,0-1.414-.681h-5.364a.686.686,0,0,0-.685.686v16.917a1.81,1.81,0,0,0,.4,1.131l5.7,7.131a.424.424,0,0,0,.755-.264V495.443l19.907,24.911a1.808,1.808,0,0,0,1.416.681h5.357a.685.685,0,0,0,.685-.686v-35.1a.686.686,0,0,0-.685-.686h-5.479a.686.686,0,0,0-.685.686" transform="translate(-875.008 -483.65)" fill="#e9e3da"/>
        <path id="Path_161" data-name="Path 161" d="M1004.47,492.853v-7.607a.686.686,0,0,0-.685-.686H975.749a.685.685,0,0,0-.685.686v35.1a.685.685,0,0,0,.685.686h5.479a.685.685,0,0,0,.685-.686V491.072h15.708l-10.6,13.271a.685.685,0,0,0,0,.854l12.113,15.157a1.809,1.809,0,0,0,1.415.681h7.015a.423.423,0,0,0,.33-.687L995.441,504.77l8.632-10.784a1.815,1.815,0,0,0,.4-1.133" transform="translate(-845.403 -483.65)" fill="#e9e3da"/>
        <path id="Path_162" data-name="Path 162" d="M879.362,521.036h16.254a1.813,1.813,0,0,0,1.415-.681l4.106-5.139a.423.423,0,0,0-.33-.687H885.525V485.247a.685.685,0,0,0-.685-.685h-5.478a.686.686,0,0,0-.686.685v35.1a.686.686,0,0,0,.686.685" transform="translate(-816.453 -483.65)" fill="#e9e3da"/>
      </g>
      <g id="Group_182" data-name="Group 182" transform="translate(0 49.021)">
        <g id="Group_181" data-name="Group 181">
          <path id="Path_163" data-name="Path 163" d="M563.646,554.993H607.6a.883.883,0,0,1,1,1v12.236a3.449,3.449,0,0,1-.665,2.081l-10.654,13.817,10.654,13.818a3.45,3.45,0,0,1,.665,2.08V612.26a.883.883,0,0,1-1,1H563.646a.994.994,0,0,1-1-1V555.992a.994.994,0,0,1,1-1Zm34.044,47.7-13.734-17.9a1.037,1.037,0,0,1,0-1.249l13.734-17.979H573.3v37.124Z" transform="translate(-562.647 -553.825)" fill="#e9e3da"/>
          <path id="Path_164" data-name="Path 164" d="M645.45,555.992a.994.994,0,0,1,1-1h35.959a.883.883,0,0,1,1,1v8.573a.883.883,0,0,1-1,1H656.1v13.318h20.81a.882.882,0,0,1,1,1v8.49q0,1.083-1,1.082H656.1v13.235h28.884a.728.728,0,0,1,.707.416.6.6,0,0,1-.125.749l-6.16,8.074a3.387,3.387,0,0,1-2.747,1.332H646.448a.994.994,0,0,1-1-1Z" transform="translate(-587.517 -553.825)" fill="#e9e3da"/>
          <path id="Path_165" data-name="Path 165" d="M708.98,583.375a30.267,30.267,0,0,1,8.781-21.517,29.413,29.413,0,0,1,21.351-8.531,30.093,30.093,0,0,1,21.351,9.072,31.167,31.167,0,0,1,6.368,9.7,29.059,29.059,0,0,1,2.247,11.778,30.076,30.076,0,0,1-2.5,11.819,30.7,30.7,0,0,1-6.534,9.573,29.821,29.821,0,0,1-9.614,6.368,30.428,30.428,0,0,1-11.82,2.289,28.988,28.988,0,0,1-11.695-2.372,29.28,29.28,0,0,1-9.448-6.493,29.727,29.727,0,0,1-6.242-9.7A31.762,31.762,0,0,1,708.98,583.375Zm10.654.416a19.3,19.3,0,0,0,1.582,7.742,21.1,21.1,0,0,0,4.245,6.409,19.926,19.926,0,0,0,6.16,4.328,17.491,17.491,0,0,0,14.9-.166,20.274,20.274,0,0,0,6.118-4.453,20.689,20.689,0,0,0,4.12-6.493,20.848,20.848,0,0,0-.166-15.523,20.669,20.669,0,0,0-4.245-6.368,20.217,20.217,0,0,0-6.2-4.287,18.079,18.079,0,0,0-7.45-1.581,18.325,18.325,0,0,0-7.408,1.706,19.224,19.224,0,0,0-6.077,4.411,21.273,21.273,0,0,0-4.079,6.451A20.48,20.48,0,0,0,719.634,583.791Z" transform="translate(-606.598 -553.324)" fill="#e9e3da"/>
          <path id="Path_166" data-name="Path 166" d="M808.556,612.26V555.992a.994.994,0,0,1,1-1h7.907a3.392,3.392,0,0,1,2.747,1.332l29.965,38.954V555.992a.883.883,0,0,1,1-1h8.574a.883.883,0,0,1,1,1V612.26a.883.883,0,0,1-1,1H851.84a3.385,3.385,0,0,1-2.747-1.332L819.21,572.972V612.26q0,1-1.082,1h-8.573a.994.994,0,0,1-1-1Z" transform="translate(-636.505 -553.825)" fill="#e9e3da"/>
          <path id="Path_167" data-name="Path 167" d="M900.281,555.992a.994.994,0,0,1,1-1h35.959a.883.883,0,0,1,1,1v8.573a.883.883,0,0,1-1,1h-26.3v13.318h20.81a.882.882,0,0,1,1,1v8.49q0,1.083-1,1.082h-20.81v13.235h28.884a.728.728,0,0,1,.707.416.6.6,0,0,1-.125.749l-6.16,8.074a3.388,3.388,0,0,1-2.747,1.332H901.279a.994.994,0,0,1-1-1Z" transform="translate(-664.055 -553.825)" fill="#e9e3da"/>
          <path id="Path_168" data-name="Path 168" d="M997.121,583.375a29.708,29.708,0,0,1,2.373-11.9,30.829,30.829,0,0,1,6.409-9.572,28.91,28.91,0,0,1,9.531-6.368,29.406,29.406,0,0,1,11.82-2.205,29.931,29.931,0,0,1,12.443,2.747,30.276,30.276,0,0,1,9.865,7.325,1.039,1.039,0,0,1,.208.749.915.915,0,0,1-.374.665l-6.576,5.578a1.032,1.032,0,0,1-.749.208.906.906,0,0,1-.666-.375,20.9,20.9,0,0,0-6.492-5.035,17.061,17.061,0,0,0-8.074-1.79,18.328,18.328,0,0,0-7.409,1.706,19.21,19.21,0,0,0-6.076,4.411,21.275,21.275,0,0,0-4.079,6.451,20.466,20.466,0,0,0-1.5,7.824,19.524,19.524,0,0,0,1.582,7.825,21.125,21.125,0,0,0,4.245,6.409,19.364,19.364,0,0,0,6.161,4.287,18.353,18.353,0,0,0,7.491,1.541,18.081,18.081,0,0,0,7.824-1.915,19.7,19.7,0,0,0,6.325-4.995.921.921,0,0,1,.666-.374.906.906,0,0,1,.749.292l6.576,5.576a.921.921,0,0,1,.374.667,1.037,1.037,0,0,1-.208.749,30.754,30.754,0,0,1-10.072,7.449,29.967,29.967,0,0,1-33.878-6.243,29.725,29.725,0,0,1-6.242-9.7A31.752,31.752,0,0,1,997.121,583.375Z" transform="translate(-693.14 -553.324)" fill="#e9e3da"/>
          <path id="Path_169" data-name="Path 169" d="M1086.752,554.755h8.574a.995.995,0,0,1,1,1V591.8a11.73,11.73,0,0,0,.791,4.287,12.74,12.74,0,0,0,2.164,3.662,10.8,10.8,0,0,0,3.288,2.622,11.7,11.7,0,0,0,4.161,1.248,10.973,10.973,0,0,0,4.87-.582,11.532,11.532,0,0,0,6.7-6.2,11.273,11.273,0,0,0,1-4.7V555.754a.908.908,0,0,1,.333-.708,1.111,1.111,0,0,1,.749-.291h8.49a.994.994,0,0,1,1,1v36.375a21.4,21.4,0,0,1-1.706,8.49,22.76,22.76,0,0,1-4.619,6.992,22.315,22.315,0,0,1-6.867,4.786,21.236,21.236,0,0,1-8.448,1.873,20.6,20.6,0,0,1-8.741-1.706,22.921,22.921,0,0,1-11.986-12.153,22.242,22.242,0,0,1-1.748-8.781V555.754a.994.994,0,0,1,1-1Z" transform="translate(-719.761 -553.754)" fill="#e9e3da"/>
          <path id="Path_170" data-name="Path 170" d="M1165.939,612.022V555.754a.994.994,0,0,1,1-1h43.949a.994.994,0,0,1,1,1V567.99a3.2,3.2,0,0,1-.748,2.081l-12.153,15.9a3.39,3.39,0,0,1-2.747,1.331h-10.571a.743.743,0,0,1-.708-.374.67.67,0,0,1,.125-.791l15.982-20.809h-24.472v46.7q0,1-1.082,1h-8.574a.994.994,0,0,1-1-1Z" transform="translate(-743.844 -553.754)" fill="#e9e3da"/>
          <path id="Path_171" data-name="Path 171" d="M1364.977,564.4l6.159-8.074a3.389,3.389,0,0,1,2.747-1.332h11.57q1,0,1,1.082V612.26q0,1.083-1,1.082h-8.573q-1,0-1-1.082v-46.7H1365.56a.767.767,0,0,1-.667-.375A.62.62,0,0,1,1364.977,564.4Z" transform="translate(-803.568 -553.825)" fill="#e9e3da"/>
        </g>
        <path id="Path_172" data-name="Path 172" d="M1328.248,577.475q1,0,1-1.082V567.82a1,1,0,0,0-1-1h-10.712V556.108q0-1-1.082-1h-8.573a1,1,0,0,0-1,1V566.82h-13.535V556.108q0-1-1.082-1h-8.574a1,1,0,0,0-1,1V566.82h-10.712a1,1,0,0,0-1,1v8.573q0,1.081,1,1.082h10.712V591.01h-10.712a.995.995,0,0,0-1,1v8.573q0,1.081,1,1.082h10.712v10.712a1,1,0,0,0,1,1h8.574q1.08,0,1.082-1V601.665h13.535v10.712a1,1,0,0,0,1,1h8.573q1.081,0,1.082-1V601.665h10.712q1,0,1-1.082v-8.573a.994.994,0,0,0-1-1h-10.712V577.475Zm-21.367,13.535h-13.535V577.475h13.535Z" transform="translate(-775.393 -553.86)" fill="#e9e3da"/>
      </g>
    </g>
  </g>
</svg>
